<?xml version="1.0" encoding="UTF-8"?>
<svg xmlns="http://www.w3.org/2000/svg" xmlns:xlink="http://www.w3.org/1999/xlink" version="1.1" viewBox="0 0 640 120">
  <defs>
    <style>
      .kyndryl-red {
        fill: #ff462d;
        stroke-width: 0px;
      }
      .lg-blue {
        fill: #004990;
      }
      .lg-text {
        fill: white;
        font-family: 'Arial', sans-serif;
        font-weight: bold;
      }
      .partnership-text {
        fill: #666666;
        font-family: 'Arial', sans-serif;
        font-size: 10px;
      }
      .separator {
        fill: #e0e0e0;
      }
    </style>
  </defs>
  
  <!-- Kyndryl Logo (scaled and positioned) -->
  <g transform="translate(20, 10) scale(0.5)">
    <g id="kyndryl">
      <path class="kyndryl-red" d="M460.4,0v115.1h-13.5V0h13.5ZM187.4,36.7c-13.2,0-21.4,8.4-22.6,19.1h-.7v-17.4h-13.5v76.7h13.5v-47.8c0-12.9,6.8-18.9,18.4-18.9s19.1,6.6,19.1,19.6v47.1h13.5v-48.8c0-18.3-10.3-29.6-27.7-29.6ZM104.8,113.1h-.4l-23.4-74.6h-14l24.8,76.7h12.5l-12.6,38.4h13.5l37.2-115.1h-13.9l-23.5,74.5ZM401.1,113.1h-.4l-23.4-74.6h-14l24.8,76.7h12.5l-12.6,38.4h13.5l37.2-115.1h-13.9l-23.5,74.5ZM28.1,76.8l33.3-38.4h-16.4l-31,37h-.4V0H0v115.1h13.5v-37.6h12.8l26,37.6h15.7l-26.8-38.3h-13.1ZM331.3,55.9h-.6v-17.4h-13.5v76.7h13.5v-48c0-12.9,7.4-17.6,19.9-17.6s6.1.4,8.3.9v-13.1c-1.1-.4-3.6-.8-6.4-.8-11.8,0-19.7,7.9-21.2,19.2ZM286.3,0h13.5v115.1h-13.5v-17.4h-.6c-1.3,10.7-9.5,19.1-25.1,19.1s-32.5-15.1-32.5-40.2,13.5-40.2,32.5-40.2,23.8,8.4,25.1,19.1h.6V0ZM286.3,66.7c0-12.9-9.7-18.2-21.8-18.2s-22.3,7.9-22.3,28.2,9.6,28.2,22.3,28.2,21.8-5.2,21.8-18.2v-20.2Z"/>
    </g>
  </g>
  
  <!-- Partnership connector -->
  <g transform="translate(300, 35)">
    <circle cx="25" cy="25" r="20" fill="#f8f9fa" stroke="#e0e0e0" stroke-width="2"/>
    <text x="25" y="22" text-anchor="middle" class="partnership-text" font-weight="bold">+</text>
    <text x="25" y="32" text-anchor="middle" class="partnership-text" font-size="8">TECH</text>
    <text x="25" y="40" text-anchor="middle" class="partnership-text" font-size="8">PARTNER</text>
  </g>
  
  <!-- L&G Logo Section -->
  <g transform="translate(380, 15)">
    <!-- L&G background -->
    <rect x="0" y="0" width="200" height="70" fill="#004990" rx="6"/>
    
    <!-- L&G text -->
    <text x="40" y="35" class="lg-text" font-size="32" font-weight="bold">L&amp;G</text>
    <text x="40" y="55" style="fill: white; font-size: 12px; font-family: Arial, sans-serif; font-weight: normal;">INVESTMENT</text>
    <text x="130" y="55" style="fill: white; font-size: 12px; font-family: Arial, sans-serif; font-weight: normal;">MANAGEMENT</text>
    
    <!-- Accent line -->
    <rect x="120" y="20" width="2" height="35" fill="white" opacity="0.7"/>
  </g>
  
  <!-- Bottom tagline -->
  <text x="320" y="105" text-anchor="middle" class="partnership-text" font-size="11">ESG Technology Partnership</text>
</svg>
